<svg xmlns="http://www.w3.org/2000/svg" xmlns:xlink="http://www.w3.org/1999/xlink" preserveAspectRatio="xMidYMid" width="14" height="12" viewBox="0 0 14 12">
  <path d="M11.371,1.632 C12.597,2.655 13.521,4.098 13.964,5.764 C13.986,5.846 13.997,5.931 13.997,6.018 C13.997,6.105 13.986,6.190 13.964,6.272 C13.521,7.938 12.597,9.381 11.371,10.404 C10.151,11.421 8.637,12.024 6.996,12.024 C5.355,12.024 3.841,11.421 2.621,10.404 C1.395,9.381 0.471,7.938 0.028,6.272 C0.005,6.188 -0.005,6.102 -0.005,6.018 C-0.005,5.934 0.005,5.849 0.028,5.764 C0.471,4.098 1.395,2.655 2.621,1.632 C3.841,0.615 5.355,0.013 6.996,0.013 C8.637,0.013 10.151,0.615 11.371,1.632 L11.371,1.632 ZM6.996,4.016 C5.891,4.016 4.995,4.913 4.995,6.018 C4.995,7.124 5.891,8.020 6.996,8.020 C8.101,8.020 8.997,7.124 8.997,6.018 C8.997,4.913 8.101,4.016 6.996,4.016 L6.996,4.016 ZM10.998,6.018 C10.998,3.807 9.206,2.014 6.996,2.014 C4.786,2.014 2.994,3.807 2.994,6.018 C2.994,8.229 4.786,10.022 6.996,10.022 C9.206,10.022 10.998,8.229 10.998,6.018 Z" class="eye-icon"/>
</svg>
