<svg width="20" height="20" xmlns="http://www.w3.org/2000/svg"><g fill-rule="nonzero" fill="none"><path d="M14.544 18.092c-.16 0-.388-.03-.682-.09a3.618 3.618 0 0 1-.582-.15c-.334.67-.79 1.195-1.364 1.576A3.407 3.407 0 0 1 9.99 20a3.4 3.4 0 0 1-1.976-.632c-.608-.422-1.033-.927-1.274-1.516-.414.16-.842.24-1.284.24-1.003 0-1.858-.377-2.567-1.134a3.715 3.715 0 0 1-1.043-2.68.186.186 0 0 1 0-.121v-.12a.185.185 0 0 1 0-.12.186.186 0 0 0 0-.121A4.088 4.088 0 0 1 .492 12.36 3.788 3.788 0 0 1 0 10.472c0-.676.177-1.332.532-1.968a3.536 3.536 0 0 1 1.514-1.456l-.08-.321c-.08-.2-.12-.428-.12-.683a.736.736 0 0 1 0-.341c-.014-1.018.327-1.908 1.023-2.67.695-.764 1.558-1.145 2.587-1.145.442 0 .87.08 1.284.24.254-.602.676-1.107 1.264-1.516A3.402 3.402 0 0 1 9.99 0c1.471 0 2.568.71 3.29 2.129.354-.161.775-.241 1.264-.241 1.003 0 1.855.374 2.557 1.124.702.75 1.067 1.647 1.094 2.69a2.22 2.22 0 0 0-.02.342l-.12.683c-.027.12-.067.227-.121.321.602.281 1.09.72 1.464 1.315.375.596.575 1.296.602 2.099-.027.75-.207 1.419-.541 2.008-.335.589-.776 1.03-1.325 1.325.027.054.04.094.04.12l.02.242a.1.1 0 0 0 0 .12c-.026 1.071-.394 1.975-1.103 2.711-.709.736-1.558 1.104-2.548 1.104" fill="#30AF0B"/><path d="M13.26 6.586l-4.835 4.82L6.76 9.719c-.24-.2-.478-.301-.712-.301-.234 0-.485.1-.752.3-.2.282-.298.553-.291.814a.8.8 0 0 0 .311.633l2.387 2.41c.24.2.502.3.782.3.281 0 .502-.1.662-.3h.02l5.525-5.668c.508-.56.136-1.182-.017-1.328-.153-.147-.84-.564-1.415.007z" fill="#FFF"/></g></svg>